<svg version="1.1" id="Layer_1" xmlns="http://www.w3.org/2000/svg" xmlns:xlink="http://www.w3.org/1999/xlink" x="0px" y="0px"
	 width="100%" viewBox="0 0 1280 185" enable-background="new 0 0 1280 185" xml:space="preserve">
<path fill="#000000" opacity="1.000000" stroke="none" 
	d="
M955.000000,186.000000 
	C636.666687,186.000000 318.833344,186.000000 1.000000,186.000000 
	C1.000000,124.333336 1.000000,62.666668 1.000000,1.000000 
	C427.666656,1.000000 854.333313,1.000000 1281.000000,1.000000 
	C1281.000000,62.666668 1281.000000,124.333336 1281.000000,186.000000 
	C1172.500000,186.000000 1064.000000,186.000000 955.000000,186.000000 
M281.049927,108.000038 
	C282.158661,108.628624 283.692688,108.982666 284.305298,109.931557 
	C287.618774,115.064003 290.867767,120.252701 293.837158,125.589920 
	C302.337463,140.868530 310.657654,156.247437 319.176331,171.515640 
	C319.800232,172.633865 321.437622,173.872360 322.619415,173.888168 
	C335.351776,174.058472 348.087311,173.994354 361.566132,173.994354 
	C348.082642,150.396545 335.034149,127.560036 321.763458,104.334633 
	C324.499481,102.870750 327.186493,101.473488 329.835785,100.007935 
	C337.409851,95.817993 342.616608,89.810005 346.201752,81.733192 
	C350.968201,70.995171 350.885864,59.772526 349.698822,48.865360 
	C348.223633,35.310139 341.320953,24.365366 328.377930,18.010674 
	C317.281738,12.562723 305.303375,11.425780 293.375671,11.148978 
	C271.056610,10.631026 248.716965,10.995679 226.385895,11.010131 
	C224.959732,11.011054 223.533646,11.157498 222.327744,11.224086 
	C222.327744,65.727188 222.327744,119.795631 222.327744,173.669067 
	C234.064499,173.669067 245.471466,173.669067 257.267151,173.669067 
	C257.267151,151.599640 257.267151,129.859558 257.267151,108.000000 
	C265.155243,108.000000 272.644989,108.000000 281.049927,108.000038 
M1023.942261,107.268181 
	C1023.942261,96.980835 1023.942261,86.693497 1023.942261,76.013092 
	C1002.882874,76.013092 982.143738,76.013092 961.204712,76.013092 
	C961.204712,64.879112 961.204712,54.142048 961.204712,43.008934 
	C989.455688,43.008934 1017.526306,43.008934 1045.796631,43.008934 
	C1045.796631,32.209557 1045.796631,21.805794 1045.796631,11.000001 
	C1044.174927,11.000001 1042.713379,11.000001 1041.251709,11.000001 
	C1004.425049,11.000001 967.597900,11.084360 930.772217,10.894278 
	C926.117798,10.870254 924.881348,12.136296 924.896423,16.778795 
	C925.061584,67.602448 925.000000,118.426826 925.000000,169.251007 
	C925.000000,170.705521 925.000000,172.160034 925.000000,173.802536 
	C965.134705,173.802536 1004.868042,173.802536 1044.800049,173.802536 
	C1044.800049,163.201294 1044.800049,152.797531 1044.800049,141.997925 
	C1016.866577,141.997925 989.129211,141.997925 961.201294,141.997925 
	C961.201294,130.531631 961.201294,119.461281 961.201294,107.943741 
	C982.017151,107.943741 1002.634460,107.943741 1023.942261,107.268181 
M427.000000,134.439545 
	C427.000000,125.680298 427.000000,116.921051 427.000000,107.778313 
	C448.688110,107.778313 469.760864,107.778313 490.687622,107.778313 
	C490.687622,96.972076 490.687622,86.565895 490.687622,75.771049 
	C469.304565,75.771049 448.231781,75.771049 427.315979,75.771049 
	C427.315979,64.631546 427.315979,53.891987 427.315979,42.765076 
	C456.034882,42.765076 484.439270,42.765076 512.681641,42.765076 
	C512.681641,31.959866 512.681641,21.553438 512.681641,11.316213 
	C472.294617,11.316213 432.226624,11.316213 392.311737,11.316213 
	C392.311737,65.699165 392.311737,119.765450 392.311737,173.690399 
	C432.358734,173.690399 472.093353,173.690399 511.687714,173.690399 
	C511.687714,162.972260 511.687714,152.566086 511.687714,141.772095 
	C483.306183,141.772095 455.235382,141.772095 427.000000,141.772095 
	C427.000000,139.391937 427.000000,137.407593 427.000000,134.439545 
M618.500244,150.000000 
	C635.152466,150.000000 651.804688,150.000000 668.537720,150.000000 
	C671.263000,157.146347 673.838867,164.190491 676.695923,171.118698 
	C677.195068,172.328979 678.862915,173.853485 680.015930,173.874588 
	C691.293030,174.080948 702.575378,173.998917 714.185974,173.998917 
	C713.255798,170.387161 712.754089,167.173340 711.610413,164.207108 
	C705.044800,147.179535 698.387817,130.186539 691.647644,113.227165 
	C678.458069,80.039803 665.225098,46.869526 651.839661,13.761075 
	C651.320435,12.476609 649.059082,11.159518 647.576904,11.121410 
	C638.252380,10.881660 628.918518,11.028908 619.588074,10.980642 
	C617.114502,10.967847 615.464355,11.103008 614.715210,14.328691 
	C613.748657,18.490261 611.582458,22.369905 609.966797,26.384588 
	C602.970947,43.768208 595.858337,61.106316 589.031433,78.556114 
	C580.225769,101.063850 571.693604,123.678421 562.958740,146.214066 
	C559.400574,155.393982 555.619263,164.487411 551.786621,173.999649 
	C563.710266,173.999649 575.034302,174.090698 586.352234,173.868652 
	C587.578186,173.844574 589.338806,172.250290 589.880432,170.972717 
	C592.809692,164.062439 595.433105,157.022522 598.172546,150.000000 
	C604.850464,150.000000 611.175476,150.000000 618.500244,150.000000 
M1104.011597,31.499716 
	C1118.122192,50.940983 1132.232910,70.382248 1146.211060,89.641060 
	C1125.575439,117.847984 1105.297119,145.566528 1084.495605,174.000275 
	C1097.569946,174.000275 1109.388794,173.791260 1121.192871,174.118332 
	C1125.104980,174.226746 1127.563721,172.605423 1129.518799,169.841339 
	C1134.515747,162.776535 1139.216553,155.501312 1144.243408,148.458511 
	C1151.477539,138.323303 1158.895508,128.319351 1166.354004,118.096458 
	C1179.103149,135.758224 1191.664673,153.257584 1204.397705,170.631332 
	C1205.526978,172.172241 1207.753418,173.811813 1209.504150,173.849991 
	C1222.090088,174.124542 1234.684692,173.996918 1248.322144,173.996918 
	C1244.857422,169.188004 1241.946655,165.117996 1239.005371,161.070282 
	C1222.563477,138.444168 1206.170898,115.781769 1189.586426,93.260605 
	C1187.779419,90.806862 1187.222656,89.085388 1189.068970,86.571609 
	C1195.363281,78.001747 1201.516235,69.328140 1207.788940,60.742218 
	C1218.659668,45.862675 1229.603882,31.036732 1240.435547,16.128925 
	C1241.359375,14.857355 1241.671631,13.141275 1242.519897,10.994109 
	C1231.838501,10.994109 1222.152466,11.544236 1212.563354,10.816833 
	C1205.138794,10.253630 1200.894775,13.121384 1196.837280,19.015123 
	C1187.085938,33.179497 1176.628418,46.857681 1166.118652,61.191868 
	C1155.272827,46.004879 1144.641479,31.365702 1134.329224,16.505089 
	C1131.740479,12.774416 1129.131714,10.677939 1124.329590,10.893603 
	C1116.183105,11.259468 1108.008057,10.994141 1099.845093,10.994112 
	C1096.951904,10.994102 1094.058594,10.994110 1091.165405,10.994110 
	C1090.896851,11.446405 1090.628296,11.898701 1090.359741,12.350996 
	C1094.756104,18.547224 1099.152344,24.743454 1104.011597,31.499716 
M121.006073,46.022419 
	C130.089478,48.285355 138.785736,51.390560 146.471008,56.976669 
	C147.511841,57.733223 150.121826,58.039959 150.767731,57.367077 
	C157.374908,50.483921 163.829071,43.442825 170.018402,36.183613 
	C170.791672,35.276657 170.450287,32.006584 169.502274,31.262636 
	C159.708374,23.576881 149.019958,17.487150 136.828232,14.372936 
	C123.534691,10.977282 109.995903,10.075712 96.544121,12.341436 
	C82.419289,14.720526 69.624702,20.280052 58.363609,29.733637 
	C49.280785,37.358582 42.133881,46.382835 37.289120,56.775799 
	C29.921301,72.581200 28.401960,89.495773 30.927357,106.876183 
	C34.832115,133.749725 49.382675,153.090378 72.708786,165.818680 
	C89.985596,175.246063 108.905823,175.441345 127.976074,173.048538 
	C143.459442,171.105774 156.843933,164.684326 168.849838,154.849091 
	C171.745255,152.477142 171.476730,151.118011 169.278244,148.734009 
	C163.490997,142.458389 157.794678,136.095016 152.206253,129.641800 
	C149.826813,126.894150 147.306412,127.838867 145.252792,129.386337 
	C133.616104,138.154968 120.364311,141.055634 106.210800,139.898773 
	C96.765083,139.126724 87.970100,136.056824 80.828094,129.341782 
	C67.394203,116.710991 62.839836,101.240280 65.996552,83.276398 
	C69.109535,65.561302 79.300148,53.456879 96.273300,48.238159 
	C103.734932,45.943935 112.120590,46.654953 121.006073,46.022419 
M798.000000,78.500000 
	C798.000000,110.258919 798.000000,142.017838 798.000000,173.714142 
	C809.973999,173.714142 821.378967,173.714142 833.171631,173.714142 
	C833.171631,130.028061 833.171631,86.626495 833.171631,42.830231 
	C850.968811,42.830231 868.375854,42.830231 885.713501,42.830231 
	C885.713501,32.024609 885.713501,21.619408 885.713501,11.282660 
	C838.693237,11.282660 791.960022,11.282660 745.285217,11.282660 
	C745.285217,21.972784 745.285217,32.377941 745.285217,43.175018 
	C762.974121,43.175018 780.381165,43.175018 798.000000,43.175018 
	C798.000000,54.881279 798.000000,66.190636 798.000000,78.500000 
z"/>
<path fill="#FFFFFF" opacity="1.000000" stroke="none" 
	d="
M280.592316,108.000015 
	C272.644989,108.000000 265.155243,108.000000 257.267151,108.000000 
	C257.267151,129.859558 257.267151,151.599640 257.267151,173.669067 
	C245.471466,173.669067 234.064499,173.669067 222.327744,173.669067 
	C222.327744,119.795631 222.327744,65.727188 222.327744,11.224086 
	C223.533646,11.157498 224.959732,11.011054 226.385895,11.010131 
	C248.716965,10.995679 271.056610,10.631026 293.375671,11.148978 
	C305.303375,11.425780 317.281738,12.562723 328.377930,18.010674 
	C341.320953,24.365366 348.223633,35.310139 349.698822,48.865360 
	C350.885864,59.772526 350.968201,70.995171 346.201752,81.733192 
	C342.616608,89.810005 337.409851,95.817993 329.835785,100.007935 
	C327.186493,101.473488 324.499481,102.870750 321.763458,104.334633 
	C335.034149,127.560036 348.082642,150.396545 361.566132,173.994354 
	C348.087311,173.994354 335.351776,174.058472 322.619415,173.888168 
	C321.437622,173.872360 319.800232,172.633865 319.176331,171.515640 
	C310.657654,156.247437 302.337463,140.868530 293.837158,125.589920 
	C290.867767,120.252701 287.618774,115.064003 284.305298,109.931557 
	C283.692688,108.982666 282.158661,108.628624 280.592316,108.000015 
M286.499451,44.000000 
	C276.752136,44.000000 267.004852,44.000000 257.240753,44.000000 
	C257.240753,54.916397 257.240753,65.303841 257.240753,75.530190 
	C257.613129,75.774300 257.744568,75.935867 257.876373,75.936157 
	C271.010284,75.965324 284.145691,76.095490 297.277100,75.921227 
	C300.602875,75.877090 303.956757,75.032562 307.226135,74.254875 
	C314.199158,72.596214 317.701263,66.795021 317.952667,58.998093 
	C318.178467,51.993740 314.703918,46.639091 307.599854,45.212517 
	C301.081299,43.903511 294.213165,44.335232 286.499451,44.000000 
z"/>
<path fill="#FFFFFF" opacity="1.000000" stroke="none" 
	d="
M1023.597046,107.605957 
	C1002.634460,107.943741 982.017151,107.943741 961.201294,107.943741 
	C961.201294,119.461281 961.201294,130.531631 961.201294,141.997925 
	C989.129211,141.997925 1016.866577,141.997925 1044.800049,141.997925 
	C1044.800049,152.797531 1044.800049,163.201294 1044.800049,173.802536 
	C1004.868042,173.802536 965.134705,173.802536 925.000000,173.802536 
	C925.000000,172.160034 925.000000,170.705521 925.000000,169.251007 
	C925.000000,118.426826 925.061584,67.602448 924.896423,16.778795 
	C924.881348,12.136296 926.117798,10.870254 930.772217,10.894278 
	C967.597900,11.084360 1004.425049,11.000001 1041.251709,11.000001 
	C1042.713379,11.000001 1044.174927,11.000001 1045.796631,11.000001 
	C1045.796631,21.805794 1045.796631,32.209557 1045.796631,43.008934 
	C1017.526306,43.008934 989.455688,43.008934 961.204712,43.008934 
	C961.204712,54.142048 961.204712,64.879112 961.204712,76.013092 
	C982.143738,76.013092 1002.882874,76.013092 1023.942261,76.013092 
	C1023.942261,86.693497 1023.942261,96.980835 1023.597046,107.605957 
z"/>
<path fill="#FFFFFF" opacity="1.000000" stroke="none" 
	d="
M427.000000,134.931396 
	C427.000000,137.407593 427.000000,139.391937 427.000000,141.772095 
	C455.235382,141.772095 483.306183,141.772095 511.687714,141.772095 
	C511.687714,152.566086 511.687714,162.972260 511.687714,173.690399 
	C472.093353,173.690399 432.358734,173.690399 392.311737,173.690399 
	C392.311737,119.765450 392.311737,65.699165 392.311737,11.316213 
	C432.226624,11.316213 472.294617,11.316213 512.681641,11.316213 
	C512.681641,21.553438 512.681641,31.959866 512.681641,42.765076 
	C484.439270,42.765076 456.034882,42.765076 427.315979,42.765076 
	C427.315979,53.891987 427.315979,64.631546 427.315979,75.771049 
	C448.231781,75.771049 469.304565,75.771049 490.687622,75.771049 
	C490.687622,86.565895 490.687622,96.972076 490.687622,107.778313 
	C469.760864,107.778313 448.688110,107.778313 427.000000,107.778313 
	C427.000000,116.921051 427.000000,125.680298 427.000000,134.931396 
z"/>
<path fill="#FFFFFF" opacity="1.000000" stroke="none" 
	d="
M618.000366,150.000000 
	C611.175476,150.000000 604.850464,150.000000 598.172546,150.000000 
	C595.433105,157.022522 592.809692,164.062439 589.880432,170.972717 
	C589.338806,172.250290 587.578186,173.844574 586.352234,173.868652 
	C575.034302,174.090698 563.710266,173.999649 551.786621,173.999649 
	C555.619263,164.487411 559.400574,155.393982 562.958740,146.214066 
	C571.693604,123.678421 580.225769,101.063850 589.031433,78.556114 
	C595.858337,61.106316 602.970947,43.768208 609.966797,26.384588 
	C611.582458,22.369905 613.748657,18.490261 614.715210,14.328691 
	C615.464355,11.103008 617.114502,10.967847 619.588074,10.980642 
	C628.918518,11.028908 638.252380,10.881660 647.576904,11.121410 
	C649.059082,11.159518 651.320435,12.476609 651.839661,13.761075 
	C665.225098,46.869526 678.458069,80.039803 691.647644,113.227165 
	C698.387817,130.186539 705.044800,147.179535 711.610413,164.207108 
	C712.754089,167.173340 713.255798,170.387161 714.185974,173.998917 
	C702.575378,173.998917 691.293030,174.080948 680.015930,173.874588 
	C678.862915,173.853485 677.195068,172.328979 676.695923,171.118698 
	C673.838867,164.190491 671.263000,157.146347 668.537720,150.000000 
	C651.804688,150.000000 635.152466,150.000000 618.000366,150.000000 
M654.546631,112.035324 
	C647.831482,94.931602 641.116272,77.827881 634.045227,59.817638 
	C626.307190,79.228928 619.066711,97.392220 611.732605,115.790291 
	C626.815369,115.790291 641.175903,115.790291 655.489563,115.790291 
	C655.293030,114.635513 655.130798,113.682472 654.546631,112.035324 
z"/>
<path fill="#D9063B" opacity="1.000000" stroke="none" 
	d="
M1103.780151,31.219700 
	C1099.152344,24.743454 1094.756104,18.547224 1090.359741,12.350996 
	C1090.628296,11.898701 1090.896851,11.446405 1091.165405,10.994110 
	C1094.058594,10.994110 1096.951904,10.994102 1099.845093,10.994112 
	C1108.008057,10.994141 1116.183105,11.259468 1124.329590,10.893603 
	C1129.131714,10.677939 1131.740479,12.774416 1134.329224,16.505089 
	C1144.641479,31.365702 1155.272827,46.004879 1166.118652,61.191868 
	C1176.628418,46.857681 1187.085938,33.179497 1196.837280,19.015123 
	C1200.894775,13.121384 1205.138794,10.253630 1212.563354,10.816833 
	C1222.152466,11.544236 1231.838501,10.994109 1242.519897,10.994109 
	C1241.671631,13.141275 1241.359375,14.857355 1240.435547,16.128925 
	C1229.603882,31.036732 1218.659668,45.862675 1207.788940,60.742218 
	C1201.516235,69.328140 1195.363281,78.001747 1189.068970,86.571609 
	C1187.222656,89.085388 1187.779419,90.806862 1189.586426,93.260605 
	C1206.170898,115.781769 1222.563477,138.444168 1239.005371,161.070282 
	C1241.946655,165.117996 1244.857422,169.188004 1248.322144,173.996918 
	C1234.684692,173.996918 1222.090088,174.124542 1209.504150,173.849991 
	C1207.753418,173.811813 1205.526978,172.172241 1204.397705,170.631332 
	C1191.664673,153.257584 1179.103149,135.758224 1166.354004,118.096458 
	C1158.895508,128.319351 1151.477539,138.323303 1144.243408,148.458511 
	C1139.216553,155.501312 1134.515747,162.776535 1129.518799,169.841339 
	C1127.563721,172.605423 1125.104980,174.226746 1121.192871,174.118332 
	C1109.388794,173.791260 1097.569946,174.000275 1084.495605,174.000275 
	C1105.297119,145.566528 1125.575439,117.847984 1146.211060,89.641060 
	C1132.232910,70.382248 1118.122192,50.940983 1103.780151,31.219700 
z"/>
<path fill="#FFFFFF" opacity="1.000000" stroke="none" 
	d="
M120.546387,46.011944 
	C112.120590,46.654953 103.734932,45.943935 96.273300,48.238159 
	C79.300148,53.456879 69.109535,65.561302 65.996552,83.276398 
	C62.839836,101.240280 67.394203,116.710991 80.828094,129.341782 
	C87.970100,136.056824 96.765083,139.126724 106.210800,139.898773 
	C120.364311,141.055634 133.616104,138.154968 145.252792,129.386337 
	C147.306412,127.838867 149.826813,126.894150 152.206253,129.641800 
	C157.794678,136.095016 163.490997,142.458389 169.278244,148.734009 
	C171.476730,151.118011 171.745255,152.477142 168.849838,154.849091 
	C156.843933,164.684326 143.459442,171.105774 127.976074,173.048538 
	C108.905823,175.441345 89.985596,175.246063 72.708786,165.818680 
	C49.382675,153.090378 34.832115,133.749725 30.927357,106.876183 
	C28.401960,89.495773 29.921301,72.581200 37.289120,56.775799 
	C42.133881,46.382835 49.280785,37.358582 58.363609,29.733637 
	C69.624702,20.280052 82.419289,14.720526 96.544121,12.341436 
	C109.995903,10.075712 123.534691,10.977282 136.828232,14.372936 
	C149.019958,17.487150 159.708374,23.576881 169.502274,31.262636 
	C170.450287,32.006584 170.791672,35.276657 170.018402,36.183613 
	C163.829071,43.442825 157.374908,50.483921 150.767731,57.367077 
	C150.121826,58.039959 147.511841,57.733223 146.471008,56.976669 
	C138.785736,51.390560 130.089478,48.285355 120.546387,46.011944 
z"/>
<path fill="#FFFFFF" opacity="1.000000" stroke="none" 
	d="
M798.000000,78.000000 
	C798.000000,66.190636 798.000000,54.881279 798.000000,43.175018 
	C780.381165,43.175018 762.974121,43.175018 745.285217,43.175018 
	C745.285217,32.377941 745.285217,21.972784 745.285217,11.282660 
	C791.960022,11.282660 838.693237,11.282660 885.713501,11.282660 
	C885.713501,21.619408 885.713501,32.024609 885.713501,42.830231 
	C868.375854,42.830231 850.968811,42.830231 833.171631,42.830231 
	C833.171631,86.626495 833.171631,130.028061 833.171631,173.714142 
	C821.378967,173.714142 809.973999,173.714142 798.000000,173.714142 
	C798.000000,142.017838 798.000000,110.258919 798.000000,78.000000 
z"/>
<path fill="#000000" opacity="1.000000" stroke="none" 
	d="
M286.999268,44.000000 
	C294.213165,44.335232 301.081299,43.903511 307.599854,45.212517 
	C314.703918,46.639091 318.178467,51.993740 317.952667,58.998093 
	C317.701263,66.795021 314.199158,72.596214 307.226135,74.254875 
	C303.956757,75.032562 300.602875,75.877090 297.277100,75.921227 
	C284.145691,76.095490 271.010284,75.965324 257.876373,75.936157 
	C257.744568,75.935867 257.613129,75.774300 257.240753,75.530190 
	C257.240753,65.303841 257.240753,54.916397 257.240753,44.000000 
	C267.004852,44.000000 276.752136,44.000000 286.999268,44.000000 
z"/>
<path fill="#000000" opacity="1.000000" stroke="none" 
	d="
M654.757568,112.382385 
	C655.130798,113.682472 655.293030,114.635513 655.489563,115.790291 
	C641.175903,115.790291 626.815369,115.790291 611.732605,115.790291 
	C619.066711,97.392220 626.307190,79.228928 634.045227,59.817638 
	C641.116272,77.827881 647.831482,94.931602 654.757568,112.382385 
z"/>
</svg>