<svg version="1.1" id="Layer_1" xmlns="http://www.w3.org/2000/svg" xmlns:xlink="http://www.w3.org/1999/xlink" x="0px" y="0px"
	 width="100%" viewBox="0 0 1280 185" enable-background="new 0 0 1280 185" xml:space="preserve">
<path fill="#000000" opacity="1.000000" stroke="none" 
	d="
M962.000000,186.000000 
	C641.333313,186.000000 321.166656,186.000000 1.000000,186.000000 
	C1.000000,124.333336 1.000000,62.666668 1.000000,1.000000 
	C427.666656,1.000000 854.333313,1.000000 1281.000000,1.000000 
	C1281.000000,62.666668 1281.000000,124.333336 1281.000000,186.000000 
	C1174.833374,186.000000 1068.666626,186.000000 962.000000,186.000000 
M898.731995,109.057716 
	C921.353088,109.057716 943.974121,109.057716 966.796509,109.057716 
	C966.796509,97.875244 966.796509,87.136963 966.796509,75.997864 
	C943.868469,75.997864 921.127258,75.997864 898.205566,75.997864 
	C898.205566,64.192032 898.205566,52.787094 898.205566,41.000000 
	C910.196594,41.000000 921.986206,41.000000 933.775818,41.000000 
	C950.442139,41.000000 967.109070,40.922024 983.774353,41.053074 
	C988.113464,41.087193 990.434631,40.212982 990.117493,35.048534 
	C989.658691,27.576864 989.758606,20.045307 990.091919,12.560308 
	C990.286926,8.181911 988.954834,6.881976 984.503967,6.902740 
	C947.672180,7.074571 910.839233,6.965571 874.006836,7.049545 
	C870.018005,7.058640 866.030762,7.753111 862.362976,8.099437 
	C862.362976,65.802444 862.362976,122.868736 862.362976,179.633316 
	C904.798279,179.633316 946.870300,179.633316 988.806152,179.633316 
	C988.806152,168.644623 988.806152,158.023224 988.806152,147.005264 
	C958.542114,147.005264 928.468445,147.005264 898.056274,147.005264 
	C898.056274,134.321701 898.056274,122.034889 898.731995,109.057716 
M1049.501221,180.000046 
	C1055.165649,180.000046 1060.876343,179.551300 1066.481567,180.127243 
	C1072.002075,180.694504 1075.032837,178.407959 1078.089844,174.105545 
	C1090.971802,155.975494 1104.226685,138.110413 1117.399780,120.073502 
	C1118.058105,120.673637 1118.646729,121.049583 1119.023438,121.576889 
	C1131.673828,139.279999 1144.418579,156.917847 1156.843506,174.778046 
	C1159.427856,178.492813 1161.959717,180.290680 1166.674072,180.122299 
	C1177.489624,179.736008 1188.328491,180.011536 1199.157837,179.983459 
	C1200.374268,179.980301 1201.590210,179.752563 1203.435425,179.565079 
	C1195.683472,169.003159 1188.340576,159.009506 1181.009155,149.007416 
	C1167.755981,130.926300 1154.575439,112.791321 1141.199585,94.801483 
	C1138.817993,91.598457 1138.857056,89.282585 1141.264893,86.125572 
	C1147.413330,78.064285 1153.182861,69.715225 1159.167114,61.527409 
	C1164.965210,53.594315 1170.890869,45.754257 1176.671631,37.808689 
	C1183.780884,28.037239 1190.797974,18.198805 1198.407349,7.621461 
	C1195.879395,7.358366 1194.164551,7.034264 1192.448120,7.025385 
	C1182.785278,6.975405 1173.096680,7.420706 1163.468628,6.840157 
	C1157.905273,6.504710 1154.880615,8.654801 1151.910400,12.947479 
	C1140.746582,29.082245 1129.253784,44.989365 1117.699097,61.242294 
	C1104.960205,43.985733 1092.584717,27.090286 1079.987305,10.361928 
	C1078.748291,8.716594 1076.171509,7.201282 1074.175293,7.148609 
	C1062.687622,6.845490 1051.187622,6.987877 1039.691895,7.021863 
	C1038.509277,7.025359 1037.327515,7.310613 1035.545166,7.543572 
	C1036.790894,9.028398 1037.582153,9.859626 1038.247925,10.781433 
	C1056.261108,35.721287 1074.088745,60.798729 1092.435791,85.490219 
	C1095.456543,89.555450 1095.190063,91.600105 1092.452393,95.290428 
	C1073.234009,121.195992 1054.238403,147.266998 1035.208984,173.312378 
	C1033.774170,175.276154 1032.628296,177.451080 1031.057007,180.000046 
	C1037.510620,180.000046 1043.006470,180.000046 1049.501221,180.000046 
M680.000000,41.500000 
	C680.000000,87.582504 680.000000,133.665009 680.000000,179.730988 
	C691.943542,179.730988 703.346252,179.730988 715.143921,179.730988 
	C715.143921,155.454865 715.143921,131.444992 715.143921,107.115219 
	C720.303650,113.161118 725.100037,118.850105 729.973450,124.472343 
	C734.807617,130.049301 739.753601,135.529312 744.590088,141.104370 
	C755.211670,153.348236 765.778748,165.639481 776.426941,177.860138 
	C777.228333,178.779953 778.491516,179.894867 779.549011,179.904190 
	C794.625610,180.037033 809.703735,179.994812 825.867798,179.994812 
	C798.238464,148.844482 771.338074,118.516029 744.468872,88.222755 
	C767.188843,61.059296 789.395874,34.509087 812.404907,7.000000 
	C799.181824,7.000000 787.686707,7.257007 776.213501,6.867227 
	C771.922485,6.721446 769.456543,8.608846 767.085205,11.510964 
	C759.663635,20.593430 752.174683,29.621086 744.785889,38.730000 
	C736.795044,48.580990 728.894043,58.504807 720.938293,68.384361 
	C719.184631,70.562065 717.365723,72.687248 714.770630,75.805305 
	C714.770630,52.017616 714.770630,29.612854 714.770630,7.289227 
	C703.015198,7.289227 691.612122,7.289227 680.000000,7.289227 
	C680.000000,18.551516 680.000000,29.525759 680.000000,41.500000 
M584.512512,46.953625 
	C589.453735,49.578358 594.292786,52.434124 599.397034,54.689941 
	C600.970459,55.385319 603.986694,55.196774 605.109985,54.123379 
	C610.357117,49.109261 615.232422,43.697826 620.116638,38.315868 
	C622.277832,35.934452 624.145020,33.286278 626.366211,30.480639 
	C624.359375,28.966806 622.528564,27.622570 620.736633,26.228415 
	C599.215088,9.484526 574.395203,4.869723 548.174500,8.253279 
	C529.654724,10.643101 513.695435,19.155582 500.407501,32.909302 
	C477.490326,56.629795 472.130249,84.776657 478.514771,115.870857 
	C482.678650,136.150131 494.495270,151.883560 510.806335,164.218246 
	C522.459045,173.030212 535.849670,178.557266 550.277832,179.780258 
	C567.927490,181.276337 585.670532,180.451096 602.227417,172.903748 
	C611.003235,168.903320 619.473450,164.233078 626.513184,156.862259 
	C618.425598,148.037735 610.640137,139.542831 602.855530,131.048859 
	C601.614746,131.733932 600.608521,132.175613 599.725891,132.793716 
	C583.884338,143.887009 566.587158,148.291687 547.718506,142.895844 
	C533.240479,138.755585 522.625488,129.889771 516.737366,115.480476 
	C511.879944,103.593422 511.572327,91.356689 514.250427,79.401466 
	C517.675354,64.112473 527.246582,53.031609 542.048706,46.978607 
	C555.924255,41.304516 569.895813,41.603611 584.512512,46.953625 
M162.959579,22.450489 
	C142.423645,9.292471 119.843620,4.894186 95.974419,8.141902 
	C77.053276,10.716371 60.796246,19.007532 47.303410,33.034100 
	C24.473619,56.766964 19.149347,84.889671 25.567766,115.977074 
	C29.078819,132.982742 38.283401,146.943878 51.085938,158.631790 
	C64.266579,170.664886 79.810783,178.211517 97.347862,179.726624 
	C114.906715,181.243591 132.737610,181.001648 149.247269,172.945877 
	C157.919052,168.714554 166.467697,164.233612 173.499054,156.850037 
	C165.433380,148.046722 157.650879,139.552475 149.926804,131.121979 
	C134.304764,142.961716 117.039177,147.679825 98.118118,143.839005 
	C83.358208,140.842896 71.831184,132.473740 65.042267,118.745674 
	C59.213840,106.959816 58.820461,94.388115 60.958530,81.561157 
	C64.578148,59.845966 83.008179,45.231075 103.644981,43.051308 
	C119.270378,41.400875 133.678604,45.410076 146.494064,54.332642 
	C149.625946,56.513161 150.974792,55.770100 152.985336,53.567177 
	C157.547150,48.568851 162.252197,43.700493 166.778015,38.670418 
	C169.039383,36.157112 171.035156,33.404812 173.420059,30.424454 
	C169.970078,27.843344 166.724243,25.414953 162.959579,22.450489 
M227.000000,158.499878 
	C227.000000,165.599030 227.000000,172.698181 227.000000,179.713226 
	C269.644897,179.713226 311.713257,179.713226 353.710266,179.713226 
	C353.710266,168.685303 353.710266,157.946442 353.710266,146.816895 
	C323.350983,146.816895 293.279572,146.816895 262.818268,146.816895 
	C262.818268,100.018478 262.818268,53.616009 262.818268,7.291194 
	C250.682434,7.291194 238.943756,7.291194 227.000000,7.291194 
	C227.000000,57.554714 227.000000,107.527336 227.000000,158.499878 
M433.000000,131.500000 
	C433.000000,90.074539 433.000000,48.649075 433.000000,7.286601 
	C421.025116,7.286601 409.619904,7.286601 398.283630,7.286601 
	C398.283630,64.974068 398.283630,122.374489 398.283630,179.713425 
	C409.974792,179.713425 421.380127,179.713425 433.000000,179.713425 
	C433.000000,163.785217 433.000000,148.142609 433.000000,131.500000 
z"/>
<path fill="#FFFFFF" opacity="1.000000" stroke="none" 
	d="
M898.394165,109.402893 
	C898.056274,122.034889 898.056274,134.321701 898.056274,147.005264 
	C928.468445,147.005264 958.542114,147.005264 988.806152,147.005264 
	C988.806152,158.023224 988.806152,168.644623 988.806152,179.633316 
	C946.870300,179.633316 904.798279,179.633316 862.362976,179.633316 
	C862.362976,122.868736 862.362976,65.802444 862.362976,8.099437 
	C866.030762,7.753111 870.018005,7.058640 874.006836,7.049545 
	C910.839233,6.965571 947.672180,7.074571 984.503967,6.902740 
	C988.954834,6.881976 990.286926,8.181911 990.091919,12.560308 
	C989.758606,20.045307 989.658691,27.576864 990.117493,35.048534 
	C990.434631,40.212982 988.113464,41.087193 983.774353,41.053074 
	C967.109070,40.922024 950.442139,41.000000 933.775818,41.000000 
	C921.986206,41.000000 910.196594,41.000000 898.205566,41.000000 
	C898.205566,52.787094 898.205566,64.192032 898.205566,75.997864 
	C921.127258,75.997864 943.868469,75.997864 966.796509,75.997864 
	C966.796509,87.136963 966.796509,97.875244 966.796509,109.057716 
	C943.974121,109.057716 921.353088,109.057716 898.394165,109.402893 
z"/>
<path fill="#D9073C" opacity="1.000000" stroke="none" 
	d="
M1049.001709,180.000046 
	C1043.006470,180.000046 1037.510620,180.000046 1031.057007,180.000046 
	C1032.628296,177.451080 1033.774170,175.276154 1035.208984,173.312378 
	C1054.238403,147.266998 1073.234009,121.195992 1092.452393,95.290428 
	C1095.190063,91.600105 1095.456543,89.555450 1092.435791,85.490219 
	C1074.088745,60.798729 1056.261108,35.721287 1038.247925,10.781433 
	C1037.582153,9.859626 1036.790894,9.028398 1035.545166,7.543572 
	C1037.327515,7.310613 1038.509277,7.025359 1039.691895,7.021863 
	C1051.187622,6.987877 1062.687622,6.845490 1074.175293,7.148609 
	C1076.171509,7.201282 1078.748291,8.716594 1079.987305,10.361928 
	C1092.584717,27.090286 1104.960205,43.985733 1117.699097,61.242294 
	C1129.253784,44.989365 1140.746582,29.082245 1151.910400,12.947479 
	C1154.880615,8.654801 1157.905273,6.504710 1163.468628,6.840157 
	C1173.096680,7.420706 1182.785278,6.975405 1192.448120,7.025385 
	C1194.164551,7.034264 1195.879395,7.358366 1198.407349,7.621461 
	C1190.797974,18.198805 1183.780884,28.037239 1176.671631,37.808689 
	C1170.890869,45.754257 1164.965210,53.594315 1159.167114,61.527409 
	C1153.182861,69.715225 1147.413330,78.064285 1141.264893,86.125572 
	C1138.857056,89.282585 1138.817993,91.598457 1141.199585,94.801483 
	C1154.575439,112.791321 1167.755981,130.926300 1181.009155,149.007416 
	C1188.340576,159.009506 1195.683472,169.003159 1203.435425,179.565079 
	C1201.590210,179.752563 1200.374268,179.980301 1199.157837,179.983459 
	C1188.328491,180.011536 1177.489624,179.736008 1166.674072,180.122299 
	C1161.959717,180.290680 1159.427856,178.492813 1156.843506,174.778046 
	C1144.418579,156.917847 1131.673828,139.279999 1119.023438,121.576889 
	C1118.646729,121.049583 1118.058105,120.673637 1117.399780,120.073502 
	C1104.226685,138.110413 1090.971802,155.975494 1078.089844,174.105545 
	C1075.032837,178.407959 1072.002075,180.694504 1066.481567,180.127243 
	C1060.876343,179.551300 1055.165649,180.000046 1049.001709,180.000046 
z"/>
<path fill="#FFFFFF" opacity="1.000000" stroke="none" 
	d="
M680.000000,41.000000 
	C680.000000,29.525759 680.000000,18.551516 680.000000,7.289227 
	C691.612122,7.289227 703.015198,7.289227 714.770630,7.289227 
	C714.770630,29.612854 714.770630,52.017616 714.770630,75.805305 
	C717.365723,72.687248 719.184631,70.562065 720.938293,68.384361 
	C728.894043,58.504807 736.795044,48.580990 744.785889,38.730000 
	C752.174683,29.621086 759.663635,20.593430 767.085205,11.510964 
	C769.456543,8.608846 771.922485,6.721446 776.213501,6.867227 
	C787.686707,7.257007 799.181824,7.000000 812.404907,7.000000 
	C789.395874,34.509087 767.188843,61.059296 744.468872,88.222755 
	C771.338074,118.516029 798.238464,148.844482 825.867798,179.994812 
	C809.703735,179.994812 794.625610,180.037033 779.549011,179.904190 
	C778.491516,179.894867 777.228333,178.779953 776.426941,177.860138 
	C765.778748,165.639481 755.211670,153.348236 744.590088,141.104370 
	C739.753601,135.529312 734.807617,130.049301 729.973450,124.472343 
	C725.100037,118.850105 720.303650,113.161118 715.143921,107.115219 
	C715.143921,131.444992 715.143921,155.454865 715.143921,179.730988 
	C703.346252,179.730988 691.943542,179.730988 680.000000,179.730988 
	C680.000000,133.665009 680.000000,87.582504 680.000000,41.000000 
z"/>
<path fill="#FFFFFF" opacity="1.000000" stroke="none" 
	d="
M584.217529,46.677605 
	C569.895813,41.603611 555.924255,41.304516 542.048706,46.978607 
	C527.246582,53.031609 517.675354,64.112473 514.250427,79.401466 
	C511.572327,91.356689 511.879944,103.593422 516.737366,115.480476 
	C522.625488,129.889771 533.240479,138.755585 547.718506,142.895844 
	C566.587158,148.291687 583.884338,143.887009 599.725891,132.793716 
	C600.608521,132.175613 601.614746,131.733932 602.855530,131.048859 
	C610.640137,139.542831 618.425598,148.037735 626.513184,156.862259 
	C619.473450,164.233078 611.003235,168.903320 602.227417,172.903748 
	C585.670532,180.451096 567.927490,181.276337 550.277832,179.780258 
	C535.849670,178.557266 522.459045,173.030212 510.806335,164.218246 
	C494.495270,151.883560 482.678650,136.150131 478.514771,115.870857 
	C472.130249,84.776657 477.490326,56.629795 500.407501,32.909302 
	C513.695435,19.155582 529.654724,10.643101 548.174500,8.253279 
	C574.395203,4.869723 599.215088,9.484526 620.736633,26.228415 
	C622.528564,27.622570 624.359375,28.966806 626.366211,30.480639 
	C624.145020,33.286278 622.277832,35.934452 620.116638,38.315868 
	C615.232422,43.697826 610.357117,49.109261 605.109985,54.123379 
	C603.986694,55.196774 600.970459,55.385319 599.397034,54.689941 
	C594.292786,52.434124 589.453735,49.578358 584.217529,46.677605 
z"/>
<path fill="#FFFFFF" opacity="1.000000" stroke="none" 
	d="
M163.218994,22.718525 
	C166.724243,25.414953 169.970078,27.843344 173.420059,30.424454 
	C171.035156,33.404812 169.039383,36.157112 166.778015,38.670418 
	C162.252197,43.700493 157.547150,48.568851 152.985336,53.567177 
	C150.974792,55.770100 149.625946,56.513161 146.494064,54.332642 
	C133.678604,45.410076 119.270378,41.400875 103.644981,43.051308 
	C83.008179,45.231075 64.578148,59.845966 60.958530,81.561157 
	C58.820461,94.388115 59.213840,106.959816 65.042267,118.745674 
	C71.831184,132.473740 83.358208,140.842896 98.118118,143.839005 
	C117.039177,147.679825 134.304764,142.961716 149.926804,131.121979 
	C157.650879,139.552475 165.433380,148.046722 173.499054,156.850037 
	C166.467697,164.233612 157.919052,168.714554 149.247269,172.945877 
	C132.737610,181.001648 114.906715,181.243591 97.347862,179.726624 
	C79.810783,178.211517 64.266579,170.664886 51.085938,158.631790 
	C38.283401,146.943878 29.078819,132.982742 25.567766,115.977074 
	C19.149347,84.889671 24.473619,56.766964 47.303410,33.034100 
	C60.796246,19.007532 77.053276,10.716371 95.974419,8.141902 
	C119.843620,4.894186 142.423645,9.292471 163.218994,22.718525 
z"/>
<path fill="#FFFFFF" opacity="1.000000" stroke="none" 
	d="
M227.000000,157.999908 
	C227.000000,107.527336 227.000000,57.554714 227.000000,7.291194 
	C238.943756,7.291194 250.682434,7.291194 262.818268,7.291194 
	C262.818268,53.616009 262.818268,100.018478 262.818268,146.816895 
	C293.279572,146.816895 323.350983,146.816895 353.710266,146.816895 
	C353.710266,157.946442 353.710266,168.685303 353.710266,179.713226 
	C311.713257,179.713226 269.644897,179.713226 227.000000,179.713226 
	C227.000000,172.698181 227.000000,165.599030 227.000000,157.999908 
z"/>
<path fill="#FFFFFF" opacity="1.000000" stroke="none" 
	d="
M433.000000,132.000000 
	C433.000000,148.142609 433.000000,163.785217 433.000000,179.713425 
	C421.380127,179.713425 409.974792,179.713425 398.283630,179.713425 
	C398.283630,122.374489 398.283630,64.974068 398.283630,7.286601 
	C409.619904,7.286601 421.025116,7.286601 433.000000,7.286601 
	C433.000000,48.649075 433.000000,90.074539 433.000000,132.000000 
z"/>
</svg>