<?xml version="1.0" encoding="UTF-8"?>
<!DOCTYPE svg PUBLIC "-//W3C//DTD SVG 1.1//EN" "http://www.w3.org/Graphics/SVG/1.1/DTD/svg11.dtd">
<svg xmlns="http://www.w3.org/2000/svg" version="1.1" width="3264px" height="472px" style="shape-rendering:geometricPrecision; text-rendering:geometricPrecision; image-rendering:optimizeQuality; fill-rule:evenodd; clip-rule:evenodd" xmlns:xlink="http://www.w3.org/1999/xlink">
<g><path style="opacity:0.983" fill="#fefffe" d="M 1013.5,18.5 C 1042.83,18.5 1072.17,18.5 1101.5,18.5C 1101.5,164.833 1101.5,311.167 1101.5,457.5C 1072.17,457.5 1042.83,457.5 1013.5,457.5C 1013.5,311.167 1013.5,164.833 1013.5,18.5 Z"/></g>
<g><path style="opacity:0.983" fill="#fefffe" d="M 255.5,19.5 C 315.524,14.6695 370.19,29.1695 419.5,63C 425.792,67.6233 431.792,72.6233 437.5,78C 417.953,99.3765 398.62,120.877 379.5,142.5C 330.419,106.083 277.085,98.2501 219.5,119C 175.351,141.085 151.517,176.918 148,226.5C 144.917,264.235 154.917,297.901 178,327.5C 209.039,359.297 246.872,373.13 291.5,369C 324.315,366.082 353.649,354.582 379.5,334.5C 398.805,356.141 418.138,377.808 437.5,399.5C 385.241,444.249 324.574,463.416 255.5,457C 184.342,449.773 129.509,416.273 91,356.5C 65.88,313.579 55.5467,267.245 60,217.5C 67.5202,143.924 102.354,87.4236 164.5,48C 192.961,32.122 223.294,22.622 255.5,19.5 Z"/></g>
<g><path style="opacity:0.984" fill="#fefffe" d="M 577.5,19.5 C 607.167,19.5 636.833,19.5 666.5,19.5C 666.5,138.167 666.5,256.833 666.5,375.5C 743.833,375.5 821.167,375.5 898.5,375.5C 898.5,402.833 898.5,430.167 898.5,457.5C 791.5,457.5 684.5,457.5 577.5,457.5C 577.5,311.5 577.5,165.5 577.5,19.5 Z"/></g>
<g><path style="opacity:0.982" fill="#fefffe" d="M 1410.5,19.5 C 1463.2,15.4457 1512.54,26.279 1558.5,52C 1570.4,59.9 1581.74,68.5667 1592.5,78C 1573.74,100.095 1554.24,121.595 1534,142.5C 1485.9,106.68 1433.4,98.5129 1376.5,118C 1332.72,138.722 1308.55,173.222 1304,221.5C 1299.07,259.45 1307.74,293.784 1330,324.5C 1361.2,358.796 1400.03,373.629 1446.5,369C 1479.13,366.341 1508.13,354.841 1533.5,334.5C 1537.48,337.984 1541.32,341.651 1545,345.5C 1560.06,363.905 1575.9,381.738 1592.5,399C 1556.73,431.277 1514.73,450.277 1466.5,456C 1369.11,467.592 1294.28,432.425 1242,350.5C 1214.08,297.258 1206.75,241.258 1220,182.5C 1238.79,113.715 1280.62,64.5479 1345.5,35C 1366.58,26.8214 1388.25,21.6547 1410.5,19.5 Z"/></g>
<g><path style="opacity:0.979" fill="#fefffe" d="M 1732.5,19.5 C 1762.17,19.5 1791.83,19.5 1821.5,19.5C 1821.33,76.8343 1821.5,134.168 1822,191.5C 1869.1,134.064 1916.6,76.8974 1964.5,20C 1997.83,19.3333 2031.17,19.3333 2064.5,20C 2007.07,87.4271 1950.4,155.427 1894.5,224C 1962.37,301.538 2030.37,379.038 2098.5,456.5C 2060.17,457.667 2021.84,457.833 1983.5,457C 1929.67,395.167 1875.83,333.333 1822,271.5C 1821.5,333.499 1821.33,395.499 1821.5,457.5C 1791.83,457.5 1762.17,457.5 1732.5,457.5C 1732.5,311.5 1732.5,165.5 1732.5,19.5 Z"/></g>
<g><path style="opacity:0.991" fill="#fefffe" d="M 2194.5,19.5 C 2301.5,19.5 2408.5,19.5 2515.5,19.5C 2515.5,46.8333 2515.5,74.1667 2515.5,101.5C 2437.83,101.5 2360.17,101.5 2282.5,101.5C 2282.5,132.5 2282.5,163.5 2282.5,194.5C 2340.83,194.5 2399.17,194.5 2457.5,194.5C 2457.5,221.833 2457.5,249.167 2457.5,276.5C 2399.17,276.5 2340.83,276.5 2282.5,276.5C 2282.5,309.5 2282.5,342.5 2282.5,375.5C 2359.83,375.5 2437.17,375.5 2514.5,375.5C 2514.5,402.833 2514.5,430.167 2514.5,457.5C 2407.83,457.5 2301.17,457.5 2194.5,457.5C 2194.5,311.5 2194.5,165.5 2194.5,19.5 Z"/></g>
<g><path style="opacity:0.999" fill="#d8063b" d="M 2640.5,20.5 C 2675,19.3357 2709.66,19.1691 2744.5,20C 2778.06,65.6272 2811.72,111.127 2845.5,156.5C 2878.58,110.905 2911.91,65.4047 2945.5,20C 2980.17,19.3333 3014.83,19.3333 3049.5,20C 2999.21,90.0644 2948.54,159.898 2897.5,229.5C 2953.21,305.102 3008.54,380.935 3063.5,457C 3028.5,457.667 2993.5,457.667 2958.5,457C 2920.44,405.694 2882.78,354.194 2845.5,302.5C 2807.68,353.476 2770.35,404.809 2733.5,456.5C 2697.84,457.667 2662.17,457.833 2626.5,457C 2682.46,381.575 2737.79,305.742 2792.5,229.5C 2742.55,159.231 2691.88,89.5647 2640.5,20.5 Z"/></g>
</svg>
