<?xml version="1.0" encoding="UTF-8"?>
<!DOCTYPE svg PUBLIC "-//W3C//DTD SVG 1.1//EN" "http://www.w3.org/Graphics/SVG/1.1/DTD/svg11.dtd">
<svg xmlns="http://www.w3.org/2000/svg" version="1.1" width="3264px" height="472px" style="shape-rendering:geometricPrecision; text-rendering:geometricPrecision; image-rendering:optimizeQuality; fill-rule:evenodd; clip-rule:evenodd" xmlns:xlink="http://www.w3.org/1999/xlink">
<g><path style="opacity:0.973" fill="#fefffe" d="M 260.5,3.5 C 319.071,2.0843 372.071,18.251 419.5,52C 425.633,56.3005 431.3,61.1339 436.5,66.5C 419,86.1667 401.5,105.833 384,125.5C 380.953,128.883 377.62,131.883 374,134.5C 325.179,98.404 271.679,89.2373 213.5,107C 168.97,126.181 142.136,159.681 133,207.5C 126.823,245.776 133.156,281.776 152,315.5C 176.567,350.546 210.401,369.713 253.5,373C 298.485,376.219 338.652,364.053 374,336.5C 394.638,359.141 415.305,381.807 436,404.5C 436.667,405.167 436.667,405.833 436,406.5C 378.623,454.505 312.456,474.338 237.5,466C 166.475,457.088 111.309,422.921 72,363.5C 43.0609,315.483 31.7276,263.483 38,207.5C 48.8214,124.374 91.3214,63.5406 165.5,25C 195.86,11.4977 227.527,4.33107 260.5,3.5 Z"/></g>
<g><path style="opacity:1" fill="#d8063b" d="M 2409.5,97.5 C 2406.73,97.8118 2404.39,98.9784 2402.5,101C 2389.12,119.92 2374.95,139.42 2360,159.5C 2345.75,180.998 2330.75,201.998 2315,222.5C 2312.73,226.687 2313.56,230.187 2317.5,233C 2318.45,233.483 2319.45,233.649 2320.5,233.5C 2320.34,234.873 2320.51,236.207 2321,237.5C 2324.14,243.84 2328.64,248.84 2334.5,252.5C 2387.02,323.538 2439.02,395.038 2490.5,467C 2453.17,467.667 2415.83,467.667 2378.5,467C 2339.39,412.22 2299.89,357.72 2260,303.5C 2220.87,358.265 2181.37,412.765 2141.5,467C 2104.16,467.833 2066.83,467.667 2029.5,466.5C 2087.47,386.068 2145.8,305.901 2204.5,226C 2149.78,152.699 2096.45,78.5321 2044.5,3.5C 2081.17,3.33335 2117.83,3.50001 2154.5,4C 2189.3,52.4327 2224.47,100.599 2260,148.5C 2295.41,100.678 2330.58,52.6776 2365.5,4.5C 2402.12,3.50651 2438.79,3.17318 2475.5,3.5C 2475.66,4.87344 2475.49,6.20677 2475,7.5C 2452.95,37.3782 2431.12,67.3782 2409.5,97.5 Z"/></g>
<g><path style="opacity:0.966" fill="#fefffe" d="M 1559.5,65.5 C 1561.83,65.5 1564.17,65.5 1566.5,65.5C 1566.5,96.5 1566.5,127.5 1566.5,158.5C 1581.83,158.5 1597.17,158.5 1612.5,158.5C 1612.5,182.167 1612.5,205.833 1612.5,229.5C 1597.17,229.5 1581.83,229.5 1566.5,229.5C 1566.33,273.501 1566.5,317.501 1567,361.5C 1569.44,381.303 1580.6,391.969 1600.5,393.5C 1609.2,392.294 1617.86,390.96 1626.5,389.5C 1631.99,410.462 1637.99,431.295 1644.5,452C 1639.65,456.595 1633.99,459.928 1627.5,462C 1592.51,471.918 1558.84,468.584 1526.5,452C 1499.52,435.222 1483.69,411.055 1479,379.5C 1477.57,329.517 1477.07,279.517 1477.5,229.5C 1462.5,229.5 1447.5,229.5 1432.5,229.5C 1432.5,205.833 1432.5,182.167 1432.5,158.5C 1447.5,158.5 1462.5,158.5 1477.5,158.5C 1477.5,130.5 1477.5,102.5 1477.5,74.5C 1505.03,72.0149 1532.36,69.0149 1559.5,65.5 Z"/></g>
<g><path style="opacity:0.968" fill="#fefffe" d="M 600.5,157.5 C 602.792,157.244 604.959,157.577 607,158.5C 607.333,168.5 607.667,178.5 608,188.5C 629.538,168.241 655.205,157.908 685,157.5C 693.852,158.147 702.685,158.98 711.5,160C 713.286,160.196 714.619,161.029 715.5,162.5C 710.942,190.184 706.275,217.851 701.5,245.5C 700.277,246.614 698.944,246.781 697.5,246C 667.615,225.065 641.448,228.899 619,257.5C 615.081,263.67 611.414,270.003 608,276.5C 607.5,340.166 607.333,403.832 607.5,467.5C 578.167,467.5 548.833,467.5 519.5,467.5C 519.5,367.167 519.5,266.833 519.5,166.5C 546.696,163.997 573.696,160.997 600.5,157.5 Z"/></g>
<g><path style="opacity:0.97" fill="#fefffe" d="M 901.5,157.5 C 984.382,159.006 1033.88,200.339 1050,281.5C 1052.12,302.445 1052.95,323.445 1052.5,344.5C 982.166,344.333 911.833,344.5 841.5,345C 845.984,369.152 859.984,384.819 883.5,392C 907.823,397.094 931.489,394.761 954.5,385C 963.365,380.404 972.032,375.57 980.5,370.5C 989.759,378.255 998.592,386.588 1007,395.5C 1014.8,404.303 1022.97,412.803 1031.5,421C 1018.27,438.134 1001.27,450.134 980.5,457C 949.818,466.169 918.485,469.502 886.5,467C 816.967,458.833 773.133,420.999 755,353.5C 746.588,313.501 750.588,274.834 767,237.5C 796.477,185.333 841.31,158.667 901.5,157.5 Z M 896.5,230.5 C 922.014,228.598 942.514,237.598 958,257.5C 961.902,265.038 964.069,273.038 964.5,281.5C 924.5,281.5 884.5,281.5 844.5,281.5C 846.041,259.461 857.041,244.294 877.5,236C 883.817,233.675 890.15,231.842 896.5,230.5 Z"/></g>
<g><path style="opacity:0.968" fill="#fefffe" d="M 1256.5,157.5 C 1291.78,155.982 1322.78,166.482 1349.5,189C 1370.1,211.721 1380.6,238.554 1381,269.5C 1381.5,335.499 1381.67,401.499 1381.5,467.5C 1352.17,467.5 1322.83,467.5 1293.5,467.5C 1293.67,459.826 1293.5,452.159 1293,444.5C 1259.62,467.537 1223.12,474.037 1183.5,464C 1125.92,450.737 1099.42,414.57 1104,355.5C 1107.27,326.468 1119.43,301.968 1140.5,282C 1156.05,269.729 1173.72,262.062 1193.5,259C 1215.66,255.129 1237.66,255.796 1259.5,261C 1271.14,264.489 1282.47,268.655 1293.5,273.5C 1293.45,248.942 1281.12,235.109 1256.5,232C 1223.6,228.262 1192.26,233.595 1162.5,248C 1161.17,248.667 1159.83,248.667 1158.5,248C 1147.79,231.414 1136.96,214.914 1126,198.5C 1125.33,197.167 1125.33,195.833 1126,194.5C 1166.13,170.093 1209.63,157.76 1256.5,157.5 Z M 1235.5,316.5 C 1253.64,315.889 1270.31,320.389 1285.5,330C 1288,333.167 1290.5,336.333 1293,339.5C 1301.83,371.623 1289.99,390.456 1257.5,396C 1239.83,398.884 1222.49,397.551 1205.5,392C 1180.15,380.61 1173.98,362.777 1187,338.5C 1194.84,329.994 1204.34,324.16 1215.5,321C 1222.26,319.285 1228.93,317.785 1235.5,316.5 Z"/></g>
<g><path style="opacity:0.97" fill="#fefffe" d="M 1828.5,157.5 C 1916.97,159.801 1967.13,204.801 1979,292.5C 1979.5,309.83 1979.67,327.163 1979.5,344.5C 1909.5,344.167 1839.5,344.5 1769.5,345.5C 1775.44,372.609 1792.11,388.776 1819.5,394C 1851.39,397.112 1880.39,389.445 1906.5,371C 1907.83,370.333 1909.17,370.333 1910.5,371C 1927.04,387.044 1943.04,403.544 1958.5,420.5C 1947.94,435.886 1933.94,447.053 1916.5,454C 1883.49,465.698 1849.49,470.031 1814.5,467C 1754.53,460.986 1712.7,430.486 1689,375.5C 1676.57,338.245 1675.24,300.578 1685,262.5C 1704.08,204.76 1743.58,170.593 1803.5,160C 1811.98,159.144 1820.32,158.311 1828.5,157.5 Z M 1824.5,230.5 C 1847.77,228.895 1867.27,236.562 1883,253.5C 1888.76,261.939 1891.59,271.272 1891.5,281.5C 1851.83,281.5 1812.17,281.5 1772.5,281.5C 1773.52,260.64 1783.52,245.806 1802.5,237C 1809.69,233.878 1817.02,231.711 1824.5,230.5 Z"/></g>
<g><path style="opacity:0.689" fill="#d90234" d="M 2409.5,97.5 C 2378.11,140.224 2347.11,183.224 2316.5,226.5C 2322.94,234.927 2328.94,243.594 2334.5,252.5C 2328.64,248.84 2324.14,243.84 2321,237.5C 2320.51,236.207 2320.34,234.873 2320.5,233.5C 2319.45,233.649 2318.45,233.483 2317.5,233C 2313.56,230.187 2312.73,226.687 2315,222.5C 2330.75,201.998 2345.75,180.998 2360,159.5C 2374.95,139.42 2389.12,119.92 2402.5,101C 2404.39,98.9784 2406.73,97.8118 2409.5,97.5 Z"/></g>
</svg>
