<svg xmlns="http://www.w3.org/2000/svg" width="1280" height="185" viewBox="0 0 1280 185" version="1.1"><path d="M 1090 11.276 C 1090 11.451, 1102.559 28.898, 1117.909 50.047 L 1145.819 88.500 1143.573 91.500 C 1134.902 103.085, 1085 172.087, 1085 172.493 C 1085 172.772, 1093.888 172.990, 1104.750 172.979 L 1124.500 172.957 1127.432 168.729 C 1130.868 163.774, 1164.024 117.849, 1164.953 116.757 C 1165.301 116.349, 1174.791 128.823, 1186.043 144.477 L 1206.500 172.940 1226.250 172.970 C 1237.112 172.986, 1246 172.743, 1246 172.430 C 1246 172.116, 1232.500 153.263, 1216 130.533 C 1199.500 107.803, 1186 88.896, 1186 88.517 C 1186 88.138, 1198.063 71.104, 1212.807 50.664 C 1227.550 30.224, 1239.952 12.937, 1240.366 12.250 C 1240.958 11.266, 1236.901 11.010, 1221.309 11.049 L 1201.500 11.098 1183.594 36.060 C 1173.746 49.789, 1165.480 60.813, 1165.226 60.559 C 1164.971 60.305, 1156.805 49.162, 1147.078 35.798 L 1129.392 11.500 1109.696 11.229 C 1098.863 11.080, 1090 11.101, 1090 11.276" stroke="none" fill="#db043c" fill-rule="evenodd"/><path d="M 100.273 11.031 C 65.981 14.637, 38.328 40.005, 31.396 74.218 C 30.159 80.322, 29.874 85.672, 30.241 95.910 C 30.661 107.619, 31.162 110.827, 33.859 119.087 C 38.686 133.871, 47.344 146.245, 59.796 156.160 C 74.394 167.783, 89.986 172.981, 110.292 172.993 C 132.983 173.006, 151.347 166.802, 167.437 153.685 L 170.373 151.291 159.466 139.145 C 153.466 132.465, 148.177 127, 147.712 127 C 147.247 127, 145.411 128.110, 143.632 129.467 C 135.533 135.644, 123.727 139.007, 110.201 138.988 C 95.359 138.968, 84.927 134.845, 76.100 125.512 C 67.458 116.375, 64 106.624, 64 91.395 C 64 62.835, 82.324 44.585, 111 44.585 C 122.464 44.585, 131.426 47.050, 140.984 52.834 C 144.550 54.992, 147.925 56.543, 148.484 56.280 C 149.652 55.730, 168.102 35.439, 169.286 33.401 C 171.136 30.218, 149.070 17.325, 135.496 13.657 C 130.007 12.174, 112.586 9.870, 109 10.153 C 108.175 10.218, 104.248 10.613, 100.273 11.031 M 221.750 10.569 C 221.338 10.990, 221 47.708, 221 92.167 L 221 173 238 173 L 255 173 255 139.973 L 255 106.945 269.144 107.223 L 283.287 107.500 301.894 140.216 L 320.500 172.932 339.750 172.966 C 350.337 172.985, 359 172.729, 359 172.397 C 359 171.845, 350.422 156.576, 328.257 117.678 C 323.611 109.526, 319.966 102.776, 320.155 102.678 C 320.345 102.580, 323.129 101.186, 326.342 99.579 C 340.814 92.344, 348.965 77.363, 348.965 58 C 348.965 38.103, 341.009 24.111, 325.592 16.896 C 313.563 11.267, 309.348 10.815, 264 10.288 C 241.175 10.022, 222.162 10.149, 221.750 10.569 M 405.250 10.743 L 391 11.055 391 92.027 L 391 173 451.026 173 L 511.052 173 510.776 157.750 L 510.500 142.500 467.750 142.239 L 425 141.979 425 124.503 L 425 107.028 457.250 106.764 L 489.500 106.500 489.500 91 L 489.500 75.500 457.250 75.236 L 425 74.972 425 58.497 L 425 42.021 467.750 41.761 L 510.500 41.500 510.500 26 L 510.500 10.500 465 10.465 C 439.975 10.446, 413.087 10.571, 405.250 10.743 M 615.310 11.250 C 614.796 11.938, 610.178 23.300, 605.049 36.500 C 599.919 49.700, 585.884 85.379, 573.861 115.787 C 561.837 146.195, 552 171.518, 552 172.060 C 552 172.681, 558.560 172.945, 569.728 172.773 L 587.457 172.500 591.978 160.773 L 596.500 149.047 632.166 149.023 L 667.832 149 672.500 161 L 677.168 173 695.084 173 C 704.938 173, 713 172.887, 712.999 172.750 C 712.998 172.234, 708.555 160.883, 684.718 100.500 C 671.257 66.400, 657.867 32.425, 654.964 25 C 652.061 17.575, 649.193 11.169, 648.593 10.765 C 646.596 9.423, 616.347 9.863, 615.310 11.250 M 744.483 12.243 C 744.175 13.484, 744.054 20.575, 744.212 28 L 744.500 41.500 770.743 41.767 L 796.986 42.033 797.243 107.267 L 797.500 172.500 814.250 172.774 L 831 173.048 831 107.541 L 831 42.033 857.750 41.766 L 884.500 41.500 884.500 26 L 884.500 10.500 814.771 10.243 L 745.042 9.986 744.483 12.243 M 938.750 10.743 L 925 11.056 925 92.028 L 925 173 984.500 173 L 1044 173 1044 157.500 L 1044 142 1001.500 142 L 959 142 959 124.514 L 959 107.028 990.750 106.764 L 1022.500 106.500 1022.500 91 L 1022.500 75.500 990.750 75.236 L 959 74.972 959 58.486 L 959 42 1001.525 42 L 1044.051 42 1043.775 26.250 L 1043.500 10.500 998 10.464 C 972.975 10.445, 946.313 10.570, 938.750 10.743 M 255 58.486 L 255 75.123 280.750 74.811 C 309.318 74.466, 311.152 74.087, 315.016 67.734 C 320.067 59.428, 317.504 48.659, 309.500 44.552 C 305.836 42.672, 303.378 42.473, 280.250 42.174 L 255 41.848 255 58.486 M 632.080 60 C 631.448 61.375, 626.305 74.200, 620.650 88.500 L 610.369 114.500 632.332 114.770 C 644.411 114.918, 654.481 114.853, 654.708 114.625 C 654.936 114.398, 650.540 102.351, 644.940 87.856 C 639.340 73.360, 634.414 60.600, 633.994 59.500 C 633.267 57.598, 633.173 57.622, 632.080 60" stroke="none" fill="#fcfcfc" fill-rule="evenodd"/></svg>